<svg width="24" height="25" viewBox="0 0 24 25" fill="none" xmlns="http://www.w3.org/2000/svg">
<path d="M0 12.8477C0 6.22024 5.37258 0.847656 12 0.847656C18.6274 0.847656 24 6.22024 24 12.8477C24 19.4751 18.6274 24.8477 12 24.8477C5.37258 24.8477 0 19.4751 0 12.8477Z" fill="#F7F7F7"/>
<path fill-rule="evenodd" clip-rule="evenodd" d="M16.6423 11.1838L14.6843 12.1883V10.5559C14.6927 9.97339 14.5845 9.3951 14.3661 8.85456C14.1476 8.31402 13.8233 7.82194 13.4119 7.40712C13.0005 6.9923 12.5103 6.66293 11.9697 6.43813C11.4292 6.21333 10.8491 6.0976 10.2631 6.09766V7.03952C10.229 7.78159 10.0089 8.50352 9.62287 9.13954C9.23681 9.77556 8.69701 10.3055 8.05251 10.6814C7.28807 11.1635 6.66042 11.8319 6.22926 12.6232C5.7981 13.4146 5.5778 14.3024 5.58929 15.2023C5.59157 16.0371 5.79314 16.8596 6.17745 17.6019C6.56175 18.3442 7.11782 18.9851 7.79989 19.4721L7.98937 19.5977H16.0738L16.2633 19.4721C16.9265 18.9716 17.4651 18.3263 17.8374 17.5859C18.2098 16.8456 18.4059 16.03 18.4108 15.2023C18.4214 13.8467 17.9003 12.5403 16.9581 11.5604L16.6423 11.1838ZM15.5686 18.2163H13.2948C13.2948 17.2338 12.9022 16.2915 12.2034 15.5967C11.5045 14.902 10.5567 14.5117 9.56836 14.5117V15.8931C10.1882 15.8931 10.7825 16.1379 11.2208 16.5736C11.6591 17.0092 11.9053 17.6001 11.9053 18.2163H8.43149C7.9812 17.8373 7.61836 17.3663 7.36767 16.8354C7.11699 16.3044 6.98433 15.7261 6.97878 15.1396C6.97806 14.4851 7.14606 13.8413 7.46671 13.2697C7.78736 12.6981 8.24997 12.2177 8.81044 11.8744C9.52714 11.431 10.1439 10.8453 10.6222 10.1538C11.1004 9.46222 11.4297 8.67986 11.5895 7.85583C12.0992 8.10237 12.5292 8.48599 12.8306 8.96325C13.1321 9.44051 13.2929 9.99232 13.2948 10.5559V14.5117L16.2633 12.9419C16.7638 13.5896 17.0307 14.3856 17.0212 15.2023C17.0286 15.7819 16.9014 16.3554 16.6495 16.8782C16.3975 17.4009 16.0276 17.8589 15.5686 18.2163Z" fill="url(#paint0_linear_316_835)"/>
<defs>
<linearGradient id="paint0_linear_316_835" x1="12.0002" y1="19.5986" x2="12.0002" y2="6.09859" gradientUnits="userSpaceOnUse">
<stop stop-color="#F9B147"/>
<stop offset="1" stop-color="#FDC944"/>
</linearGradient>
</defs>
</svg>
