<svg width="24" height="25" viewBox="0 0 24 25" fill="none" xmlns="http://www.w3.org/2000/svg">
<path d="M0 12.8477C0 6.22024 5.37258 0.847656 12 0.847656C18.6274 0.847656 24 6.22024 24 12.8477C24 19.4751 18.6274 24.8477 12 24.8477C5.37258 24.8477 0 19.4751 0 12.8477Z" fill="#F7F7F7"/>
<path fill-rule="evenodd" clip-rule="evenodd" d="M16.4974 9.93707C16.3212 8.87327 15.7672 7.90697 14.9355 7.21236C14.1524 6.49687 13.1267 6.09901 12.0616 6.09766V7.46001C12.7622 7.48592 13.438 7.72368 13.9984 8.14126C14.5509 8.60045 14.9261 9.23489 15.0604 9.93707H14.998C14.3612 10.1149 13.8082 10.5096 13.4361 11.0518C13.0664 11.5552 12.8693 12.163 12.8738 12.7857C12.8619 13.118 12.7708 13.4426 12.6079 13.7332C12.445 14.0239 12.215 14.2722 11.9367 14.4577C11.2822 14.9221 10.4922 15.1613 9.68762 15.1388C8.90226 15.1616 8.13204 14.9217 7.50102 14.4577C7.22871 14.2956 7.00084 14.0696 6.83742 13.7996C6.67399 13.5296 6.58005 13.224 6.5639 12.9096H5.18945C5.19206 13.7861 5.37013 14.6534 5.7133 15.4613C6.05647 16.2692 6.55792 17.0015 7.18864 17.6159C8.47507 18.8655 10.1981 19.5755 11.9992 19.5977C12.8987 19.5977 13.7894 19.421 14.6196 19.0779C15.4499 18.7348 16.2034 18.232 16.8366 17.5987C17.4698 16.9653 17.9701 16.2139 18.3086 15.3878C18.6471 14.5617 18.8172 13.6774 18.8089 12.7857C18.8305 12.1313 18.6081 11.4919 18.1842 10.9898C17.803 10.4413 17.2196 10.0632 16.5598 9.93707H16.4974ZM11.9992 18.2971C11.2222 18.2951 10.4549 18.1261 9.75012 17.8017C9.05796 17.4761 8.44112 17.0123 7.93834 16.4393L7.75093 16.2535H8.0008C8.25471 16.3732 8.53189 16.4366 8.813 16.4393L9.68762 16.5632C10.8661 16.5637 12.0104 16.171 12.9363 15.4485C13.3399 15.1283 13.6668 14.7234 13.8937 14.263C14.1205 13.8026 14.2416 13.2981 14.2483 12.7857C14.2613 12.3756 14.4156 11.9822 14.6856 11.671C14.8325 11.5255 15.0083 11.4118 15.2019 11.3372C15.3955 11.2626 15.6026 11.2287 15.8101 11.2376C16.0275 11.2238 16.2455 11.2552 16.4499 11.3298C16.6543 11.4045 16.8407 11.5207 16.9971 11.671C17.2671 11.9822 17.4215 12.3756 17.4345 12.7857C17.4241 14.2156 16.8658 15.5881 15.8726 16.6252C15.3701 17.1433 14.7691 17.5577 14.1044 17.8446C13.4396 18.1316 12.7242 18.2854 11.9992 18.2971Z" fill="#B20D30"/>
</svg>
