<svg width="24" height="25" viewBox="0 0 24 25" fill="none" xmlns="http://www.w3.org/2000/svg">
<path d="M0 12.8477C0 6.22024 5.37258 0.847656 12 0.847656C18.6274 0.847656 24 6.22024 24 12.8477C24 19.4751 18.6274 24.8477 12 24.8477C5.37258 24.8477 0 19.4751 0 12.8477Z" fill="#F7F7F7"/>
<path fill-rule="evenodd" clip-rule="evenodd" d="M8.07411 16.9392L7.94208 17.0713C7.35952 17.7169 6.85049 18.4251 6.42426 19.1831L5.23633 18.589H5.30231C5.8234 17.6668 6.443 16.8039 7.15018 16.0153L7.28213 15.8834C6.81738 14.9671 6.63376 13.9339 6.75423 12.9136C6.92926 11.8914 7.41285 10.9472 8.14009 10.2078C9.26853 9.13342 10.6207 8.32218 12.0997 7.83209C13.9905 7.1341 15.9656 6.69026 17.9733 6.51221H18.7652V7.30411C18.5871 9.31173 18.1433 11.2868 17.4453 13.1775C16.9552 14.6565 16.1439 16.0088 15.0695 17.1372C14.1478 18.0255 12.9179 18.5223 11.6378 18.5231C11.0027 18.5298 10.3725 18.4107 9.78358 18.1729C9.19464 17.935 8.65848 17.583 8.20607 17.1372L8.07411 16.9392ZM8.99805 15.9493V16.0814C9.67588 16.7211 10.5738 17.0755 11.5058 17.0713C12.4176 17.0722 13.2938 16.717 13.9476 16.0814C14.8449 15.1306 15.5408 14.0082 15.9934 12.7817C16.5663 11.202 16.9646 9.56431 17.1813 7.89799C15.515 8.11462 13.8774 8.51299 12.2978 9.08592C11.0712 9.53855 9.94886 10.2345 8.99805 11.1318C8.53942 11.6088 8.21992 12.2021 8.07411 12.8476C7.95197 13.4862 7.99741 14.1457 8.20607 14.7615C8.88598 14.073 9.61377 13.4334 10.3839 12.8476C11.2068 12.2448 12.0664 11.6938 12.9577 11.1977H13.0237L13.6836 12.3196H13.6176C12.7559 12.7698 11.9383 13.3002 11.1758 13.9035C10.4069 14.467 9.67916 15.0845 8.99805 15.7514V15.9493Z" fill="#006666"/>
</svg>
